<?xml version="1.0" encoding="utf-8"?>
<!-- Generator: Adobe Illustrator 20.0.0, SVG Export Plug-In . SVG Version: 6.00 Build 0)  -->
<svg version="1.1" id="Layer_1" xmlns="http://www.w3.org/2000/svg" xmlns:xlink="http://www.w3.org/1999/xlink" x="0px" y="0px"
	 viewBox="0 0 320 320" style="enable-background:new 0 0 320 320;" xml:space="preserve">
<style type="text/css">
	.st0{opacity:0.85;}
	.st1{fill:#FF6600;}
	.st2{fill:#FFFFFF;}
</style>
<rect width="320" height="320"/>
<g class="st0">
	<rect x="20" y="20" class="st1" width="70" height="70"/>
</g>
<g>
	<rect x="90" y="20" class="st1" width="70" height="70"/>
</g>
<g class="st0">
	<rect x="160" y="20" class="st1" width="70" height="70"/>
</g>
<g>
	<rect x="230" y="20" class="st1" width="70" height="70"/>
</g>
<g class="st0">
	<rect x="230" y="90" class="st1" width="70" height="70"/>
</g>
<g>
	<rect x="160" y="90" class="st1" width="70" height="70"/>
</g>
<g class="st0">
	<rect x="90" y="90" class="st1" width="70" height="70"/>
</g>
<g>
	<rect x="20" y="90" class="st1" width="70" height="70"/>
</g>
<g class="st0">
	<rect x="20" y="160" class="st1" width="70" height="70"/>
</g>
<g>
	<rect x="90" y="160" class="st1" width="70" height="70"/>
</g>
<g class="st0">
	<rect x="160" y="160" class="st1" width="70" height="70"/>
</g>
<g>
	<rect x="230" y="160" class="st1" width="70" height="70"/>
</g>
<g class="st0">
	<rect x="230" y="230" class="st1" width="70" height="70"/>
</g>
<g>
	<rect x="160" y="230" class="st1" width="70" height="70"/>
</g>
<g class="st0">
	<rect x="90" y="230" class="st1" width="70" height="70"/>
</g>
<g>
	<rect x="20" y="230" class="st1" width="70" height="70"/>
</g>
<path class="st2" d="M190,149.5V52L27,247.2l260,0.1v-97.6L190,149.5z M157,215.6l-61.4,0l61.4-73.7V215.6z M256,216h-32v-34h32V216
	z"/>
</svg>
